<mxfile host="app.diagrams.net" modified="2024-05-04T03:38:34.866Z" agent="Mozilla/5.0 (Windows NT 10.0; Win64; x64) AppleWebKit/537.36 (KHTML, like Gecko) Chrome/124.0.0.0 Safari/537.36" etag="cV3UDqiuWJkMYf-IfJCb" version="24.3.1" type="device">
  <diagram name="Trang-1" id="E6fYm904mRxqO0Z7ke9S">
    <mxGraphModel dx="2421" dy="1166" grid="0" gridSize="10" guides="1" tooltips="1" connect="1" arrows="1" fold="1" page="1" pageScale="1" pageWidth="827" pageHeight="1169" math="0" shadow="0">
      <root>
        <mxCell id="0" />
        <mxCell id="1" parent="0" />
        <mxCell id="Mb3yHgcJe4T5eNl-yDP2-1" value="" style="edgeStyle=orthogonalEdgeStyle;rounded=0;orthogonalLoop=1;jettySize=auto;html=1;" parent="1" source="Mb3yHgcJe4T5eNl-yDP2-2" target="Mb3yHgcJe4T5eNl-yDP2-4" edge="1">
          <mxGeometry relative="1" as="geometry" />
        </mxCell>
        <mxCell id="Mb3yHgcJe4T5eNl-yDP2-2" value="Bắt đầu" style="rounded=1;whiteSpace=wrap;html=1;" parent="1" vertex="1">
          <mxGeometry x="281" y="40" width="120" height="40" as="geometry" />
        </mxCell>
        <mxCell id="Mb3yHgcJe4T5eNl-yDP2-3" value="" style="edgeStyle=orthogonalEdgeStyle;rounded=0;orthogonalLoop=1;jettySize=auto;html=1;" parent="1" source="Mb3yHgcJe4T5eNl-yDP2-4" target="Mb3yHgcJe4T5eNl-yDP2-7" edge="1">
          <mxGeometry relative="1" as="geometry" />
        </mxCell>
        <mxCell id="Mb3yHgcJe4T5eNl-yDP2-4" value="Kết nối Wifi" style="rounded=0;whiteSpace=wrap;html=1;" parent="1" vertex="1">
          <mxGeometry x="281" y="120" width="120" height="40" as="geometry" />
        </mxCell>
        <mxCell id="Mb3yHgcJe4T5eNl-yDP2-5" value="" style="edgeStyle=orthogonalEdgeStyle;rounded=0;orthogonalLoop=1;jettySize=auto;html=1;entryX=0.5;entryY=1;entryDx=0;entryDy=0;" parent="1" source="Mb3yHgcJe4T5eNl-yDP2-7" target="Mb3yHgcJe4T5eNl-yDP2-9" edge="1">
          <mxGeometry x="-0.2366" y="5" relative="1" as="geometry">
            <mxPoint as="offset" />
          </mxGeometry>
        </mxCell>
        <mxCell id="Mb3yHgcJe4T5eNl-yDP2-6" value="" style="edgeStyle=orthogonalEdgeStyle;rounded=0;orthogonalLoop=1;jettySize=auto;html=1;" parent="1" source="Mb3yHgcJe4T5eNl-yDP2-7" target="Mb3yHgcJe4T5eNl-yDP2-11" edge="1">
          <mxGeometry relative="1" as="geometry" />
        </mxCell>
        <mxCell id="Mb3yHgcJe4T5eNl-yDP2-7" value="Kiểm tra&amp;nbsp;&lt;div&gt;kết nối&lt;/div&gt;" style="rhombus;whiteSpace=wrap;html=1;" parent="1" vertex="1">
          <mxGeometry x="301.5" y="185" width="78" height="70" as="geometry" />
        </mxCell>
        <mxCell id="Mb3yHgcJe4T5eNl-yDP2-8" value="" style="edgeStyle=orthogonalEdgeStyle;rounded=0;orthogonalLoop=1;jettySize=auto;html=1;" parent="1" source="Mb3yHgcJe4T5eNl-yDP2-9" target="Mb3yHgcJe4T5eNl-yDP2-4" edge="1">
          <mxGeometry relative="1" as="geometry" />
        </mxCell>
        <mxCell id="Mb3yHgcJe4T5eNl-yDP2-9" value="In ra màn hình lỗi" style="rounded=0;whiteSpace=wrap;html=1;" parent="1" vertex="1">
          <mxGeometry x="121" y="120" width="120" height="40" as="geometry" />
        </mxCell>
        <mxCell id="Mb3yHgcJe4T5eNl-yDP2-10" value="" style="edgeStyle=orthogonalEdgeStyle;rounded=0;orthogonalLoop=1;jettySize=auto;html=1;" parent="1" source="Mb3yHgcJe4T5eNl-yDP2-11" target="Mb3yHgcJe4T5eNl-yDP2-20" edge="1">
          <mxGeometry relative="1" as="geometry" />
        </mxCell>
        <mxCell id="Mb3yHgcJe4T5eNl-yDP2-11" value="Đọc các dữ liệu của cảm biến thu được" style="rounded=0;whiteSpace=wrap;html=1;" parent="1" vertex="1">
          <mxGeometry x="281" y="320" width="120" height="40" as="geometry" />
        </mxCell>
        <mxCell id="Mb3yHgcJe4T5eNl-yDP2-12" value="" style="edgeStyle=orthogonalEdgeStyle;rounded=0;orthogonalLoop=1;jettySize=auto;html=1;" parent="1" source="Mb3yHgcJe4T5eNl-yDP2-13" target="Mb3yHgcJe4T5eNl-yDP2-16" edge="1">
          <mxGeometry relative="1" as="geometry" />
        </mxCell>
        <mxCell id="Mb3yHgcJe4T5eNl-yDP2-13" value="In ra màn hình Serial và OLED các giá trị đọc được" style="rounded=0;whiteSpace=wrap;html=1;" parent="1" vertex="1">
          <mxGeometry x="281" y="480" width="120" height="40" as="geometry" />
        </mxCell>
        <mxCell id="Mb3yHgcJe4T5eNl-yDP2-14" value="" style="edgeStyle=orthogonalEdgeStyle;rounded=0;orthogonalLoop=1;jettySize=auto;html=1;" parent="1" source="Mb3yHgcJe4T5eNl-yDP2-16" target="Mb3yHgcJe4T5eNl-yDP2-28" edge="1">
          <mxGeometry relative="1" as="geometry" />
        </mxCell>
        <mxCell id="Mb3yHgcJe4T5eNl-yDP2-15" value="" style="edgeStyle=orthogonalEdgeStyle;rounded=0;orthogonalLoop=1;jettySize=auto;html=1;" parent="1" source="Mb3yHgcJe4T5eNl-yDP2-16" target="Mb3yHgcJe4T5eNl-yDP2-58" edge="1">
          <mxGeometry relative="1" as="geometry" />
        </mxCell>
        <mxCell id="Mb3yHgcJe4T5eNl-yDP2-16" value="Hiển thị dữ liệu theo thời gian thực lên node-red" style="rounded=0;whiteSpace=wrap;html=1;" parent="1" vertex="1">
          <mxGeometry x="281" y="560" width="120" height="40" as="geometry" />
        </mxCell>
        <mxCell id="Mb3yHgcJe4T5eNl-yDP2-17" value="" style="edgeStyle=orthogonalEdgeStyle;rounded=0;orthogonalLoop=1;jettySize=auto;html=1;" parent="1" source="Mb3yHgcJe4T5eNl-yDP2-18" target="Mb3yHgcJe4T5eNl-yDP2-84" edge="1">
          <mxGeometry relative="1" as="geometry" />
        </mxCell>
        <mxCell id="Mb3yHgcJe4T5eNl-yDP2-18" value="Đưa dữ liệu đọc được và dữ liệu thay đổi trên giao diện Node-red vào Database" style="rounded=0;whiteSpace=wrap;html=1;" parent="1" vertex="1">
          <mxGeometry x="281" y="840" width="119" height="80" as="geometry" />
        </mxCell>
        <mxCell id="Mb3yHgcJe4T5eNl-yDP2-19" value="" style="edgeStyle=orthogonalEdgeStyle;rounded=0;orthogonalLoop=1;jettySize=auto;html=1;" parent="1" source="Mb3yHgcJe4T5eNl-yDP2-20" target="Mb3yHgcJe4T5eNl-yDP2-13" edge="1">
          <mxGeometry relative="1" as="geometry" />
        </mxCell>
        <mxCell id="Mb3yHgcJe4T5eNl-yDP2-20" value="Đọc trạng thái nút nhấn" style="rounded=0;whiteSpace=wrap;html=1;" parent="1" vertex="1">
          <mxGeometry x="281" y="400" width="120" height="40" as="geometry" />
        </mxCell>
        <mxCell id="Mb3yHgcJe4T5eNl-yDP2-21" value="Yes" style="text;html=1;align=center;verticalAlign=middle;whiteSpace=wrap;rounded=0;" parent="1" vertex="1">
          <mxGeometry x="341" y="270" width="30" height="10" as="geometry" />
        </mxCell>
        <mxCell id="Mb3yHgcJe4T5eNl-yDP2-22" value="No" style="text;html=1;align=center;verticalAlign=middle;whiteSpace=wrap;rounded=0;" parent="1" vertex="1">
          <mxGeometry x="222" y="210" width="30" height="10" as="geometry" />
        </mxCell>
        <mxCell id="Mb3yHgcJe4T5eNl-yDP2-23" value="Điều khiển quạt" style="rhombus;whiteSpace=wrap;html=1;" parent="1" vertex="1">
          <mxGeometry x="521" y="280" width="80" height="80" as="geometry" />
        </mxCell>
        <mxCell id="Mb3yHgcJe4T5eNl-yDP2-24" value="Bật" style="ellipse;whiteSpace=wrap;html=1;aspect=fixed;" parent="1" vertex="1">
          <mxGeometry x="581.58" y="240" width="40" height="40" as="geometry" />
        </mxCell>
        <mxCell id="Mb3yHgcJe4T5eNl-yDP2-25" value="Điều khiển đèn" style="rhombus;whiteSpace=wrap;html=1;" parent="1" vertex="1">
          <mxGeometry x="680" y="280" width="80" height="80" as="geometry" />
        </mxCell>
        <mxCell id="Mb3yHgcJe4T5eNl-yDP2-26" value="Tắt" style="ellipse;whiteSpace=wrap;html=1;aspect=fixed;" parent="1" vertex="1">
          <mxGeometry x="660" y="240" width="40" height="40" as="geometry" />
        </mxCell>
        <mxCell id="Mb3yHgcJe4T5eNl-yDP2-27" value="Bật" style="ellipse;whiteSpace=wrap;html=1;aspect=fixed;" parent="1" vertex="1">
          <mxGeometry x="740" y="240" width="40" height="40" as="geometry" />
        </mxCell>
        <mxCell id="Mb3yHgcJe4T5eNl-yDP2-28" value="Điều khiển trên Node-red" style="rounded=0;whiteSpace=wrap;html=1;" parent="1" vertex="1">
          <mxGeometry x="281" y="640" width="120" height="40" as="geometry" />
        </mxCell>
        <mxCell id="Mb3yHgcJe4T5eNl-yDP2-29" value="" style="endArrow=classic;html=1;rounded=0;exitX=1;exitY=0.5;exitDx=0;exitDy=0;" parent="1" source="Mb3yHgcJe4T5eNl-yDP2-20" edge="1">
          <mxGeometry width="50" height="50" relative="1" as="geometry">
            <mxPoint x="401" y="400" as="sourcePoint" />
            <mxPoint x="560" y="380" as="targetPoint" />
            <Array as="points">
              <mxPoint x="440" y="420" />
              <mxPoint x="440" y="380" />
            </Array>
          </mxGeometry>
        </mxCell>
        <mxCell id="Mb3yHgcJe4T5eNl-yDP2-30" value="Delay 2s" style="rounded=0;whiteSpace=wrap;html=1;" parent="1" vertex="1">
          <mxGeometry x="401" y="200" width="80" height="40" as="geometry" />
        </mxCell>
        <mxCell id="Mb3yHgcJe4T5eNl-yDP2-31" value="Tắt" style="ellipse;whiteSpace=wrap;html=1;aspect=fixed;" parent="1" vertex="1">
          <mxGeometry x="500.00000000000006" y="240" width="40" height="40" as="geometry" />
        </mxCell>
        <mxCell id="Mb3yHgcJe4T5eNl-yDP2-32" value="Điều khiển đèn" style="rhombus;whiteSpace=wrap;html=1;" parent="1" vertex="1">
          <mxGeometry x="49" y="680" width="80" height="80" as="geometry" />
        </mxCell>
        <mxCell id="Mb3yHgcJe4T5eNl-yDP2-33" value="Tắt" style="ellipse;whiteSpace=wrap;html=1;aspect=fixed;" parent="1" vertex="1">
          <mxGeometry x="30" y="760" width="40" height="40" as="geometry" />
        </mxCell>
        <mxCell id="Mb3yHgcJe4T5eNl-yDP2-34" value="Bật" style="ellipse;whiteSpace=wrap;html=1;aspect=fixed;" parent="1" vertex="1">
          <mxGeometry x="109" y="760" width="40" height="40" as="geometry" />
        </mxCell>
        <mxCell id="Mb3yHgcJe4T5eNl-yDP2-35" value="" style="endArrow=classic;html=1;rounded=0;exitX=1;exitY=1;exitDx=0;exitDy=0;entryX=0.5;entryY=0;entryDx=0;entryDy=0;" parent="1" source="Mb3yHgcJe4T5eNl-yDP2-32" target="Mb3yHgcJe4T5eNl-yDP2-34" edge="1">
          <mxGeometry width="50" height="50" relative="1" as="geometry">
            <mxPoint x="110" y="745" as="sourcePoint" />
            <mxPoint x="209" y="745" as="targetPoint" />
          </mxGeometry>
        </mxCell>
        <mxCell id="Mb3yHgcJe4T5eNl-yDP2-36" value="" style="endArrow=classic;html=1;rounded=0;exitX=0;exitY=1;exitDx=0;exitDy=0;entryX=0.5;entryY=0;entryDx=0;entryDy=0;" parent="1" source="Mb3yHgcJe4T5eNl-yDP2-32" target="Mb3yHgcJe4T5eNl-yDP2-33" edge="1">
          <mxGeometry width="50" height="50" relative="1" as="geometry">
            <mxPoint x="70" y="720" as="sourcePoint" />
            <mxPoint x="90" y="760" as="targetPoint" />
          </mxGeometry>
        </mxCell>
        <mxCell id="Mb3yHgcJe4T5eNl-yDP2-37" value="Điều khiển quạt" style="rhombus;whiteSpace=wrap;html=1;" parent="1" vertex="1">
          <mxGeometry x="182" y="680" width="80" height="80" as="geometry" />
        </mxCell>
        <mxCell id="Mb3yHgcJe4T5eNl-yDP2-38" value="Bật" style="ellipse;whiteSpace=wrap;html=1;aspect=fixed;" parent="1" vertex="1">
          <mxGeometry x="242" y="760" width="40" height="40" as="geometry" />
        </mxCell>
        <mxCell id="Mb3yHgcJe4T5eNl-yDP2-39" value="" style="endArrow=classic;html=1;rounded=0;exitX=1;exitY=1;exitDx=0;exitDy=0;entryX=0.5;entryY=0;entryDx=0;entryDy=0;" parent="1" source="Mb3yHgcJe4T5eNl-yDP2-37" target="Mb3yHgcJe4T5eNl-yDP2-38" edge="1">
          <mxGeometry width="50" height="50" relative="1" as="geometry">
            <mxPoint x="242" y="745" as="sourcePoint" />
            <mxPoint x="262" y="785" as="targetPoint" />
          </mxGeometry>
        </mxCell>
        <mxCell id="Mb3yHgcJe4T5eNl-yDP2-40" value="" style="endArrow=classic;html=1;rounded=0;exitX=0;exitY=1;exitDx=0;exitDy=0;entryX=0.5;entryY=0;entryDx=0;entryDy=0;" parent="1" source="Mb3yHgcJe4T5eNl-yDP2-37" target="Mb3yHgcJe4T5eNl-yDP2-41" edge="1">
          <mxGeometry width="50" height="50" relative="1" as="geometry">
            <mxPoint x="202" y="745" as="sourcePoint" />
            <mxPoint x="182" y="785" as="targetPoint" />
          </mxGeometry>
        </mxCell>
        <mxCell id="Mb3yHgcJe4T5eNl-yDP2-41" value="Tắt" style="ellipse;whiteSpace=wrap;html=1;aspect=fixed;" parent="1" vertex="1">
          <mxGeometry x="162" y="760" width="40" height="40" as="geometry" />
        </mxCell>
        <mxCell id="Mb3yHgcJe4T5eNl-yDP2-42" value="Phát hiện chuyển động&amp;nbsp;" style="rhombus;whiteSpace=wrap;html=1;" parent="1" vertex="1">
          <mxGeometry x="400" y="680" width="80" height="80" as="geometry" />
        </mxCell>
        <mxCell id="Mb3yHgcJe4T5eNl-yDP2-43" value="Bật quạt" style="ellipse;whiteSpace=wrap;html=1;aspect=fixed;" parent="1" vertex="1">
          <mxGeometry x="460" y="760" width="40" height="40" as="geometry" />
        </mxCell>
        <mxCell id="Mb3yHgcJe4T5eNl-yDP2-44" value="" style="endArrow=classic;html=1;rounded=0;exitX=1;exitY=1;exitDx=0;exitDy=0;entryX=0.5;entryY=0;entryDx=0;entryDy=0;" parent="1" source="Mb3yHgcJe4T5eNl-yDP2-42" target="Mb3yHgcJe4T5eNl-yDP2-43" edge="1">
          <mxGeometry width="50" height="50" relative="1" as="geometry">
            <mxPoint x="460" y="745" as="sourcePoint" />
            <mxPoint x="480" y="785" as="targetPoint" />
          </mxGeometry>
        </mxCell>
        <mxCell id="Mb3yHgcJe4T5eNl-yDP2-45" value="" style="endArrow=classic;html=1;rounded=0;exitX=1;exitY=0.5;exitDx=0;exitDy=0;entryX=0.5;entryY=0;entryDx=0;entryDy=0;" parent="1" source="Mb3yHgcJe4T5eNl-yDP2-47" edge="1">
          <mxGeometry width="50" height="50" relative="1" as="geometry">
            <mxPoint x="420" y="745" as="sourcePoint" />
            <mxPoint x="400" y="785" as="targetPoint" />
          </mxGeometry>
        </mxCell>
        <mxCell id="Mb3yHgcJe4T5eNl-yDP2-46" value="" style="endArrow=classic;html=1;rounded=0;exitX=0;exitY=1;exitDx=0;exitDy=0;entryX=0.5;entryY=0;entryDx=0;entryDy=0;" parent="1" source="Mb3yHgcJe4T5eNl-yDP2-42" target="Mb3yHgcJe4T5eNl-yDP2-47" edge="1">
          <mxGeometry width="50" height="50" relative="1" as="geometry">
            <mxPoint x="420" y="745" as="sourcePoint" />
            <mxPoint x="400" y="785" as="targetPoint" />
          </mxGeometry>
        </mxCell>
        <mxCell id="Mb3yHgcJe4T5eNl-yDP2-47" value="Tắt quạt" style="ellipse;whiteSpace=wrap;html=1;aspect=fixed;" parent="1" vertex="1">
          <mxGeometry x="380" y="760" width="40" height="40" as="geometry" />
        </mxCell>
        <mxCell id="Mb3yHgcJe4T5eNl-yDP2-48" value="Yes" style="text;html=1;align=center;verticalAlign=middle;whiteSpace=wrap;rounded=0;" parent="1" vertex="1">
          <mxGeometry x="741" y="290" width="30" height="10" as="geometry" />
        </mxCell>
        <mxCell id="Mb3yHgcJe4T5eNl-yDP2-49" value="Yes" style="text;html=1;align=center;verticalAlign=middle;whiteSpace=wrap;rounded=0;" parent="1" vertex="1">
          <mxGeometry x="584" y="290" width="30" height="10" as="geometry" />
        </mxCell>
        <mxCell id="Mb3yHgcJe4T5eNl-yDP2-50" value="Yes" style="text;html=1;align=center;verticalAlign=middle;whiteSpace=wrap;rounded=0;" parent="1" vertex="1">
          <mxGeometry x="120" y="740" width="30" height="10" as="geometry" />
        </mxCell>
        <mxCell id="Mb3yHgcJe4T5eNl-yDP2-51" value="Yes" style="text;html=1;align=center;verticalAlign=middle;whiteSpace=wrap;rounded=0;" parent="1" vertex="1">
          <mxGeometry x="252" y="740" width="30" height="10" as="geometry" />
        </mxCell>
        <mxCell id="Mb3yHgcJe4T5eNl-yDP2-52" value="Yes" style="text;html=1;align=center;verticalAlign=middle;whiteSpace=wrap;rounded=0;" parent="1" vertex="1">
          <mxGeometry x="471" y="740" width="30" height="10" as="geometry" />
        </mxCell>
        <mxCell id="Mb3yHgcJe4T5eNl-yDP2-53" value="No" style="text;html=1;align=center;verticalAlign=middle;whiteSpace=wrap;rounded=0;" parent="1" vertex="1">
          <mxGeometry x="665" y="290" width="30" height="10" as="geometry" />
        </mxCell>
        <mxCell id="Mb3yHgcJe4T5eNl-yDP2-54" value="No" style="text;html=1;align=center;verticalAlign=middle;whiteSpace=wrap;rounded=0;" parent="1" vertex="1">
          <mxGeometry x="510.00000000000006" y="290" width="30" height="10" as="geometry" />
        </mxCell>
        <mxCell id="Mb3yHgcJe4T5eNl-yDP2-55" value="No" style="text;html=1;align=center;verticalAlign=middle;whiteSpace=wrap;rounded=0;" parent="1" vertex="1">
          <mxGeometry x="30" y="740" width="30" height="10" as="geometry" />
        </mxCell>
        <mxCell id="Mb3yHgcJe4T5eNl-yDP2-56" value="No" style="text;html=1;align=center;verticalAlign=middle;whiteSpace=wrap;rounded=0;" parent="1" vertex="1">
          <mxGeometry x="167" y="740" width="30" height="10" as="geometry" />
        </mxCell>
        <mxCell id="Mb3yHgcJe4T5eNl-yDP2-57" value="No" style="text;html=1;align=center;verticalAlign=middle;whiteSpace=wrap;rounded=0;" parent="1" vertex="1">
          <mxGeometry x="385" y="740" width="30" height="10" as="geometry" />
        </mxCell>
        <mxCell id="Mb3yHgcJe4T5eNl-yDP2-58" value="Ngưỡng khí gas vượt ngưỡng" style="rhombus;whiteSpace=wrap;html=1;" parent="1" vertex="1">
          <mxGeometry x="439" y="440" width="80" height="80" as="geometry" />
        </mxCell>
        <mxCell id="Mb3yHgcJe4T5eNl-yDP2-59" value="Yes" style="text;html=1;align=center;verticalAlign=middle;whiteSpace=wrap;rounded=0;" parent="1" vertex="1">
          <mxGeometry x="539" y="470" width="30" height="10" as="geometry" />
        </mxCell>
        <mxCell id="Mb3yHgcJe4T5eNl-yDP2-60" value="No" style="text;html=1;align=center;verticalAlign=middle;whiteSpace=wrap;rounded=0;" parent="1" vertex="1">
          <mxGeometry x="481" y="420" width="30" height="10" as="geometry" />
        </mxCell>
        <mxCell id="Mb3yHgcJe4T5eNl-yDP2-61" value="" style="endArrow=classic;html=1;rounded=0;exitX=0.5;exitY=1;exitDx=0;exitDy=0;entryX=0.5;entryY=0;entryDx=0;entryDy=0;" parent="1" source="Mb3yHgcJe4T5eNl-yDP2-28" target="Mb3yHgcJe4T5eNl-yDP2-18" edge="1">
          <mxGeometry width="50" height="50" relative="1" as="geometry">
            <mxPoint x="340" y="860" as="sourcePoint" />
            <mxPoint x="390" y="810" as="targetPoint" />
          </mxGeometry>
        </mxCell>
        <mxCell id="Mb3yHgcJe4T5eNl-yDP2-62" value="" style="endArrow=classic;html=1;rounded=0;entryX=1;entryY=0.5;entryDx=0;entryDy=0;" parent="1" edge="1">
          <mxGeometry width="50" height="50" relative="1" as="geometry">
            <mxPoint x="341" y="1120" as="sourcePoint" />
            <mxPoint x="482" y="220" as="targetPoint" />
            <Array as="points">
              <mxPoint x="561" y="1120" />
              <mxPoint x="801" y="1120" />
              <mxPoint x="802" y="220" />
            </Array>
          </mxGeometry>
        </mxCell>
        <mxCell id="Mb3yHgcJe4T5eNl-yDP2-63" value="Bật/tắt Buzzer" style="rhombus;whiteSpace=wrap;html=1;" parent="1" vertex="1">
          <mxGeometry x="680" y="680" width="80" height="80" as="geometry" />
        </mxCell>
        <mxCell id="Mb3yHgcJe4T5eNl-yDP2-64" value="Bật Buzzer" style="ellipse;whiteSpace=wrap;html=1;aspect=fixed;" parent="1" vertex="1">
          <mxGeometry x="740" y="760" width="40" height="40" as="geometry" />
        </mxCell>
        <mxCell id="Mb3yHgcJe4T5eNl-yDP2-65" value="" style="endArrow=classic;html=1;rounded=0;exitX=1;exitY=1;exitDx=0;exitDy=0;entryX=0.5;entryY=0;entryDx=0;entryDy=0;" parent="1" source="Mb3yHgcJe4T5eNl-yDP2-63" target="Mb3yHgcJe4T5eNl-yDP2-64" edge="1">
          <mxGeometry width="50" height="50" relative="1" as="geometry">
            <mxPoint x="740" y="745" as="sourcePoint" />
            <mxPoint x="760" y="785" as="targetPoint" />
          </mxGeometry>
        </mxCell>
        <mxCell id="Mb3yHgcJe4T5eNl-yDP2-66" value="" style="endArrow=classic;html=1;rounded=0;exitX=1;exitY=0.5;exitDx=0;exitDy=0;entryX=0.5;entryY=0;entryDx=0;entryDy=0;" parent="1" source="Mb3yHgcJe4T5eNl-yDP2-68" edge="1">
          <mxGeometry width="50" height="50" relative="1" as="geometry">
            <mxPoint x="700" y="745" as="sourcePoint" />
            <mxPoint x="680" y="785" as="targetPoint" />
          </mxGeometry>
        </mxCell>
        <mxCell id="Mb3yHgcJe4T5eNl-yDP2-67" value="" style="endArrow=classic;html=1;rounded=0;exitX=0;exitY=1;exitDx=0;exitDy=0;entryX=0.5;entryY=0;entryDx=0;entryDy=0;" parent="1" source="Mb3yHgcJe4T5eNl-yDP2-63" target="Mb3yHgcJe4T5eNl-yDP2-68" edge="1">
          <mxGeometry width="50" height="50" relative="1" as="geometry">
            <mxPoint x="700" y="745" as="sourcePoint" />
            <mxPoint x="680" y="785" as="targetPoint" />
          </mxGeometry>
        </mxCell>
        <mxCell id="Mb3yHgcJe4T5eNl-yDP2-68" value="Tắt Buzzer" style="ellipse;whiteSpace=wrap;html=1;aspect=fixed;" parent="1" vertex="1">
          <mxGeometry x="660" y="760" width="40" height="40" as="geometry" />
        </mxCell>
        <mxCell id="Mb3yHgcJe4T5eNl-yDP2-69" value="Yes" style="text;html=1;align=center;verticalAlign=middle;whiteSpace=wrap;rounded=0;" parent="1" vertex="1">
          <mxGeometry x="751" y="740" width="30" height="10" as="geometry" />
        </mxCell>
        <mxCell id="Mb3yHgcJe4T5eNl-yDP2-70" value="No" style="text;html=1;align=center;verticalAlign=middle;whiteSpace=wrap;rounded=0;" parent="1" vertex="1">
          <mxGeometry x="665" y="740" width="30" height="10" as="geometry" />
        </mxCell>
        <mxCell id="Mb3yHgcJe4T5eNl-yDP2-71" value="Bật/tắt PIR" style="rhombus;whiteSpace=wrap;html=1;" parent="1" vertex="1">
          <mxGeometry x="540" y="680" width="80" height="80" as="geometry" />
        </mxCell>
        <mxCell id="Mb3yHgcJe4T5eNl-yDP2-72" value="Bật PIR" style="ellipse;whiteSpace=wrap;html=1;aspect=fixed;" parent="1" vertex="1">
          <mxGeometry x="599" y="760" width="40" height="40" as="geometry" />
        </mxCell>
        <mxCell id="Mb3yHgcJe4T5eNl-yDP2-73" value="" style="endArrow=classic;html=1;rounded=0;exitX=1;exitY=1;exitDx=0;exitDy=0;entryX=0.5;entryY=0;entryDx=0;entryDy=0;" parent="1" source="Mb3yHgcJe4T5eNl-yDP2-71" target="Mb3yHgcJe4T5eNl-yDP2-72" edge="1">
          <mxGeometry width="50" height="50" relative="1" as="geometry">
            <mxPoint x="599" y="745" as="sourcePoint" />
            <mxPoint x="619" y="785" as="targetPoint" />
          </mxGeometry>
        </mxCell>
        <mxCell id="Mb3yHgcJe4T5eNl-yDP2-74" value="" style="endArrow=classic;html=1;rounded=0;exitX=1;exitY=0.5;exitDx=0;exitDy=0;entryX=0.5;entryY=0;entryDx=0;entryDy=0;" parent="1" source="Mb3yHgcJe4T5eNl-yDP2-76" edge="1">
          <mxGeometry width="50" height="50" relative="1" as="geometry">
            <mxPoint x="559" y="745" as="sourcePoint" />
            <mxPoint x="539" y="785" as="targetPoint" />
          </mxGeometry>
        </mxCell>
        <mxCell id="Mb3yHgcJe4T5eNl-yDP2-75" value="" style="endArrow=classic;html=1;rounded=0;exitX=0;exitY=1;exitDx=0;exitDy=0;entryX=0.5;entryY=0;entryDx=0;entryDy=0;" parent="1" source="Mb3yHgcJe4T5eNl-yDP2-71" target="Mb3yHgcJe4T5eNl-yDP2-76" edge="1">
          <mxGeometry width="50" height="50" relative="1" as="geometry">
            <mxPoint x="559" y="745" as="sourcePoint" />
            <mxPoint x="539" y="785" as="targetPoint" />
          </mxGeometry>
        </mxCell>
        <mxCell id="Mb3yHgcJe4T5eNl-yDP2-76" value="Tắt PIR" style="ellipse;whiteSpace=wrap;html=1;aspect=fixed;" parent="1" vertex="1">
          <mxGeometry x="519" y="760" width="40" height="40" as="geometry" />
        </mxCell>
        <mxCell id="Mb3yHgcJe4T5eNl-yDP2-77" value="Yes" style="text;html=1;align=center;verticalAlign=middle;whiteSpace=wrap;rounded=0;" parent="1" vertex="1">
          <mxGeometry x="610" y="740" width="30" height="10" as="geometry" />
        </mxCell>
        <mxCell id="Mb3yHgcJe4T5eNl-yDP2-78" value="No" style="text;html=1;align=center;verticalAlign=middle;whiteSpace=wrap;rounded=0;" parent="1" vertex="1">
          <mxGeometry x="524" y="740" width="30" height="10" as="geometry" />
        </mxCell>
        <mxCell id="Mb3yHgcJe4T5eNl-yDP2-79" value="" style="edgeStyle=orthogonalEdgeStyle;rounded=0;orthogonalLoop=1;jettySize=auto;html=1;" parent="1" source="Mb3yHgcJe4T5eNl-yDP2-80" target="Mb3yHgcJe4T5eNl-yDP2-82" edge="1">
          <mxGeometry relative="1" as="geometry" />
        </mxCell>
        <mxCell id="Mb3yHgcJe4T5eNl-yDP2-80" value="Bắt đầu" style="rounded=1;whiteSpace=wrap;html=1;" parent="1" vertex="1">
          <mxGeometry x="120" y="400" width="80" height="40" as="geometry" />
        </mxCell>
        <mxCell id="Mb3yHgcJe4T5eNl-yDP2-81" value="" style="edgeStyle=orthogonalEdgeStyle;rounded=0;orthogonalLoop=1;jettySize=auto;html=1;" parent="1" source="Mb3yHgcJe4T5eNl-yDP2-82" target="Mb3yHgcJe4T5eNl-yDP2-16" edge="1">
          <mxGeometry relative="1" as="geometry" />
        </mxCell>
        <mxCell id="Mb3yHgcJe4T5eNl-yDP2-82" value="Lấy dữ liệu từ openweathermap.org" style="rounded=0;whiteSpace=wrap;html=1;" parent="1" vertex="1">
          <mxGeometry x="80.5" y="560" width="159" height="40" as="geometry" />
        </mxCell>
        <mxCell id="Mb3yHgcJe4T5eNl-yDP2-83" value="Delay 60s" style="rounded=0;whiteSpace=wrap;html=1;" parent="1" vertex="1">
          <mxGeometry x="20" y="480" width="80" height="40" as="geometry" />
        </mxCell>
        <mxCell id="Mb3yHgcJe4T5eNl-yDP2-84" value="Truy xuất dữ liệu của từng thiết bị theo ngày hoặc theo phòng" style="rhombus;whiteSpace=wrap;html=1;" parent="1" vertex="1">
          <mxGeometry x="281" y="960" width="119" height="120" as="geometry" />
        </mxCell>
        <mxCell id="Mb3yHgcJe4T5eNl-yDP2-85" value="Yes" style="text;html=1;align=center;verticalAlign=middle;whiteSpace=wrap;rounded=0;" parent="1" vertex="1">
          <mxGeometry x="401" y="1000" width="30" height="10" as="geometry" />
        </mxCell>
        <mxCell id="Mb3yHgcJe4T5eNl-yDP2-86" value="No" style="text;html=1;align=center;verticalAlign=middle;whiteSpace=wrap;rounded=0;" parent="1" vertex="1">
          <mxGeometry x="341" y="1090" width="30" height="10" as="geometry" />
        </mxCell>
        <mxCell id="Mb3yHgcJe4T5eNl-yDP2-87" value="Xuất dữ liệu thành bảng chi tiết" style="rounded=0;whiteSpace=wrap;html=1;" parent="1" vertex="1">
          <mxGeometry x="479" y="960" width="120" height="40" as="geometry" />
        </mxCell>
        <mxCell id="Mb3yHgcJe4T5eNl-yDP2-88" value="Xuất dữ liệu thành biểu đồ cột cho từng thiết bị" style="rounded=0;whiteSpace=wrap;html=1;" parent="1" vertex="1">
          <mxGeometry x="479" y="1040" width="120" height="40" as="geometry" />
        </mxCell>
        <mxCell id="Mb3yHgcJe4T5eNl-yDP2-89" value="" style="endArrow=classic;html=1;rounded=0;exitX=1;exitY=0.5;exitDx=0;exitDy=0;" parent="1" source="Mb3yHgcJe4T5eNl-yDP2-84" edge="1">
          <mxGeometry width="50" height="50" relative="1" as="geometry">
            <mxPoint x="391" y="1030" as="sourcePoint" />
            <mxPoint x="440" y="1020" as="targetPoint" />
          </mxGeometry>
        </mxCell>
        <mxCell id="Mb3yHgcJe4T5eNl-yDP2-90" value="" style="endArrow=classic;html=1;rounded=0;" parent="1" edge="1">
          <mxGeometry width="50" height="50" relative="1" as="geometry">
            <mxPoint x="440" y="1020" as="sourcePoint" />
            <mxPoint x="479" y="980" as="targetPoint" />
            <Array as="points">
              <mxPoint x="440" y="980" />
            </Array>
          </mxGeometry>
        </mxCell>
        <mxCell id="Mb3yHgcJe4T5eNl-yDP2-91" value="" style="endArrow=classic;html=1;rounded=0;" parent="1" edge="1">
          <mxGeometry width="50" height="50" relative="1" as="geometry">
            <mxPoint x="440" y="1020" as="sourcePoint" />
            <mxPoint x="479" y="1060" as="targetPoint" />
            <Array as="points">
              <mxPoint x="440" y="1060" />
            </Array>
          </mxGeometry>
        </mxCell>
        <mxCell id="Mb3yHgcJe4T5eNl-yDP2-92" value="" style="endArrow=classic;html=1;rounded=0;" parent="1" edge="1">
          <mxGeometry width="50" height="50" relative="1" as="geometry">
            <mxPoint x="599" y="980" as="sourcePoint" />
            <mxPoint x="800" y="980" as="targetPoint" />
          </mxGeometry>
        </mxCell>
        <mxCell id="Mb3yHgcJe4T5eNl-yDP2-93" value="" style="endArrow=classic;html=1;rounded=0;" parent="1" edge="1">
          <mxGeometry width="50" height="50" relative="1" as="geometry">
            <mxPoint x="600" y="1059.8" as="sourcePoint" />
            <mxPoint x="801" y="1059.8" as="targetPoint" />
          </mxGeometry>
        </mxCell>
        <mxCell id="Mb3yHgcJe4T5eNl-yDP2-94" value="" style="endArrow=classic;html=1;rounded=0;" parent="1" edge="1">
          <mxGeometry width="50" height="50" relative="1" as="geometry">
            <mxPoint x="400" y="820" as="sourcePoint" />
            <mxPoint x="800" y="820" as="targetPoint" />
          </mxGeometry>
        </mxCell>
        <mxCell id="Mb3yHgcJe4T5eNl-yDP2-95" value="" style="endArrow=classic;html=1;rounded=0;" parent="1" edge="1">
          <mxGeometry width="50" height="50" relative="1" as="geometry">
            <mxPoint x="51" y="1120" as="sourcePoint" />
            <mxPoint x="341" y="1120" as="targetPoint" />
          </mxGeometry>
        </mxCell>
        <mxCell id="Mb3yHgcJe4T5eNl-yDP2-96" value="" style="endArrow=classic;html=1;rounded=0;exitX=0.5;exitY=1;exitDx=0;exitDy=0;" parent="1" edge="1">
          <mxGeometry width="50" height="50" relative="1" as="geometry">
            <mxPoint x="49" y="800" as="sourcePoint" />
            <mxPoint x="50" y="1120" as="targetPoint" />
          </mxGeometry>
        </mxCell>
        <mxCell id="Mb3yHgcJe4T5eNl-yDP2-97" value="" style="endArrow=classic;html=1;rounded=0;exitX=0.5;exitY=1;exitDx=0;exitDy=0;" parent="1" edge="1">
          <mxGeometry width="50" height="50" relative="1" as="geometry">
            <mxPoint x="128.5" y="800" as="sourcePoint" />
            <mxPoint x="129.5" y="1120" as="targetPoint" />
          </mxGeometry>
        </mxCell>
        <mxCell id="Mb3yHgcJe4T5eNl-yDP2-98" value="" style="endArrow=classic;html=1;rounded=0;exitX=0.5;exitY=1;exitDx=0;exitDy=0;" parent="1" edge="1">
          <mxGeometry width="50" height="50" relative="1" as="geometry">
            <mxPoint x="182" y="800" as="sourcePoint" />
            <mxPoint x="183" y="1120" as="targetPoint" />
          </mxGeometry>
        </mxCell>
        <mxCell id="Mb3yHgcJe4T5eNl-yDP2-99" value="" style="endArrow=classic;html=1;rounded=0;exitX=0.5;exitY=1;exitDx=0;exitDy=0;" parent="1" edge="1">
          <mxGeometry width="50" height="50" relative="1" as="geometry">
            <mxPoint x="261.5" y="800" as="sourcePoint" />
            <mxPoint x="262.5" y="1120" as="targetPoint" />
          </mxGeometry>
        </mxCell>
        <mxCell id="Mb3yHgcJe4T5eNl-yDP2-100" value="" style="endArrow=classic;html=1;rounded=0;entryX=0.5;entryY=0;entryDx=0;entryDy=0;" parent="1" target="Mb3yHgcJe4T5eNl-yDP2-42" edge="1">
          <mxGeometry width="50" height="50" relative="1" as="geometry">
            <mxPoint x="440" y="660" as="sourcePoint" />
            <mxPoint x="491" y="610" as="targetPoint" />
          </mxGeometry>
        </mxCell>
        <mxCell id="Mb3yHgcJe4T5eNl-yDP2-101" value="" style="endArrow=classic;html=1;rounded=0;entryX=0.5;entryY=0;entryDx=0;entryDy=0;" parent="1" edge="1">
          <mxGeometry width="50" height="50" relative="1" as="geometry">
            <mxPoint x="579.9399999999999" y="660" as="sourcePoint" />
            <mxPoint x="579.9399999999999" y="680" as="targetPoint" />
          </mxGeometry>
        </mxCell>
        <mxCell id="Mb3yHgcJe4T5eNl-yDP2-102" value="" style="endArrow=classic;html=1;rounded=0;entryX=0.5;entryY=0;entryDx=0;entryDy=0;" parent="1" edge="1">
          <mxGeometry width="50" height="50" relative="1" as="geometry">
            <mxPoint x="222" y="660" as="sourcePoint" />
            <mxPoint x="221.93" y="680" as="targetPoint" />
          </mxGeometry>
        </mxCell>
        <mxCell id="Mb3yHgcJe4T5eNl-yDP2-103" value="" style="endArrow=classic;html=1;rounded=0;entryX=0.5;entryY=0;entryDx=0;entryDy=0;" parent="1" edge="1">
          <mxGeometry width="50" height="50" relative="1" as="geometry">
            <mxPoint x="88.80000000000001" y="660" as="sourcePoint" />
            <mxPoint x="88.80000000000001" y="680" as="targetPoint" />
          </mxGeometry>
        </mxCell>
        <mxCell id="Mb3yHgcJe4T5eNl-yDP2-104" value="" style="endArrow=classic;html=1;rounded=0;entryX=0.5;entryY=0;entryDx=0;entryDy=0;" parent="1" edge="1">
          <mxGeometry width="50" height="50" relative="1" as="geometry">
            <mxPoint x="719.61" y="660" as="sourcePoint" />
            <mxPoint x="719.61" y="680" as="targetPoint" />
          </mxGeometry>
        </mxCell>
        <mxCell id="Mb3yHgcJe4T5eNl-yDP2-105" value="" style="edgeStyle=orthogonalEdgeStyle;rounded=0;orthogonalLoop=1;jettySize=auto;html=1;" parent="1" edge="1">
          <mxGeometry relative="1" as="geometry">
            <mxPoint x="401" y="659.8" as="sourcePoint" />
            <mxPoint x="440" y="660" as="targetPoint" />
          </mxGeometry>
        </mxCell>
        <mxCell id="Mb3yHgcJe4T5eNl-yDP2-106" value="" style="edgeStyle=orthogonalEdgeStyle;rounded=0;orthogonalLoop=1;jettySize=auto;html=1;" parent="1" edge="1">
          <mxGeometry relative="1" as="geometry">
            <mxPoint x="440" y="660" as="sourcePoint" />
            <mxPoint x="580" y="660" as="targetPoint" />
          </mxGeometry>
        </mxCell>
        <mxCell id="Mb3yHgcJe4T5eNl-yDP2-107" value="" style="edgeStyle=orthogonalEdgeStyle;rounded=0;orthogonalLoop=1;jettySize=auto;html=1;" parent="1" edge="1">
          <mxGeometry relative="1" as="geometry">
            <mxPoint x="580" y="660" as="sourcePoint" />
            <mxPoint x="720" y="659.84" as="targetPoint" />
          </mxGeometry>
        </mxCell>
        <mxCell id="Mb3yHgcJe4T5eNl-yDP2-108" value="" style="endArrow=classic;html=1;rounded=0;" parent="1" edge="1">
          <mxGeometry width="50" height="50" relative="1" as="geometry">
            <mxPoint x="280" y="660" as="sourcePoint" />
            <mxPoint x="222" y="660" as="targetPoint" />
          </mxGeometry>
        </mxCell>
        <mxCell id="Mb3yHgcJe4T5eNl-yDP2-109" value="" style="endArrow=classic;html=1;rounded=0;" parent="1" edge="1">
          <mxGeometry width="50" height="50" relative="1" as="geometry">
            <mxPoint x="221" y="659.9" as="sourcePoint" />
            <mxPoint x="90" y="659.9" as="targetPoint" />
          </mxGeometry>
        </mxCell>
        <mxCell id="Mb3yHgcJe4T5eNl-yDP2-110" value="Bật Buzzer trong 2s rồi tắt" style="rounded=0;whiteSpace=wrap;html=1;" parent="1" vertex="1">
          <mxGeometry x="639" y="480" width="121" height="40" as="geometry" />
        </mxCell>
        <mxCell id="Mb3yHgcJe4T5eNl-yDP2-111" value="" style="endArrow=classic;html=1;rounded=0;entryX=0.5;entryY=0;entryDx=0;entryDy=0;" parent="1" edge="1">
          <mxGeometry width="50" height="50" relative="1" as="geometry">
            <mxPoint x="401" y="800" as="sourcePoint" />
            <mxPoint x="401" y="820" as="targetPoint" />
          </mxGeometry>
        </mxCell>
        <mxCell id="Mb3yHgcJe4T5eNl-yDP2-112" value="" style="endArrow=classic;html=1;rounded=0;entryX=0.5;entryY=0;entryDx=0;entryDy=0;" parent="1" edge="1">
          <mxGeometry width="50" height="50" relative="1" as="geometry">
            <mxPoint x="478.69" y="800" as="sourcePoint" />
            <mxPoint x="478.69" y="820" as="targetPoint" />
          </mxGeometry>
        </mxCell>
        <mxCell id="Mb3yHgcJe4T5eNl-yDP2-113" value="" style="endArrow=classic;html=1;rounded=0;entryX=0.5;entryY=0;entryDx=0;entryDy=0;" parent="1" edge="1">
          <mxGeometry width="50" height="50" relative="1" as="geometry">
            <mxPoint x="538.84" y="800" as="sourcePoint" />
            <mxPoint x="538.84" y="820" as="targetPoint" />
          </mxGeometry>
        </mxCell>
        <mxCell id="Mb3yHgcJe4T5eNl-yDP2-114" value="" style="endArrow=classic;html=1;rounded=0;entryX=0.5;entryY=0;entryDx=0;entryDy=0;" parent="1" edge="1">
          <mxGeometry width="50" height="50" relative="1" as="geometry">
            <mxPoint x="619.84" y="800" as="sourcePoint" />
            <mxPoint x="619.84" y="820" as="targetPoint" />
          </mxGeometry>
        </mxCell>
        <mxCell id="Mb3yHgcJe4T5eNl-yDP2-115" value="" style="endArrow=classic;html=1;rounded=0;entryX=0.5;entryY=0;entryDx=0;entryDy=0;" parent="1" edge="1">
          <mxGeometry width="50" height="50" relative="1" as="geometry">
            <mxPoint x="680" y="800" as="sourcePoint" />
            <mxPoint x="680" y="820" as="targetPoint" />
          </mxGeometry>
        </mxCell>
        <mxCell id="Mb3yHgcJe4T5eNl-yDP2-116" value="" style="endArrow=classic;html=1;rounded=0;entryX=0.5;entryY=0;entryDx=0;entryDy=0;" parent="1" edge="1">
          <mxGeometry width="50" height="50" relative="1" as="geometry">
            <mxPoint x="760" y="800" as="sourcePoint" />
            <mxPoint x="760" y="820" as="targetPoint" />
          </mxGeometry>
        </mxCell>
        <mxCell id="Mb3yHgcJe4T5eNl-yDP2-117" value="" style="endArrow=classic;html=1;rounded=0;" parent="1" edge="1">
          <mxGeometry width="50" height="50" relative="1" as="geometry">
            <mxPoint x="341.40000000000003" y="1080" as="sourcePoint" />
            <mxPoint x="341" y="1120" as="targetPoint" />
          </mxGeometry>
        </mxCell>
        <mxCell id="Mb3yHgcJe4T5eNl-yDP2-118" value="" style="endArrow=classic;html=1;rounded=0;" parent="1" edge="1">
          <mxGeometry width="50" height="50" relative="1" as="geometry">
            <mxPoint x="560.91" y="380" as="sourcePoint" />
            <mxPoint x="560.91" y="360" as="targetPoint" />
          </mxGeometry>
        </mxCell>
        <mxCell id="Mb3yHgcJe4T5eNl-yDP2-119" value="" style="endArrow=classic;html=1;rounded=0;" parent="1" edge="1">
          <mxGeometry width="50" height="50" relative="1" as="geometry">
            <mxPoint x="719.8299999999999" y="380" as="sourcePoint" />
            <mxPoint x="719.8299999999999" y="360" as="targetPoint" />
          </mxGeometry>
        </mxCell>
        <mxCell id="Mb3yHgcJe4T5eNl-yDP2-120" value="" style="endArrow=classic;html=1;rounded=0;entryX=1;entryY=1;entryDx=0;entryDy=0;" parent="1" target="Mb3yHgcJe4T5eNl-yDP2-31" edge="1">
          <mxGeometry width="50" height="50" relative="1" as="geometry">
            <mxPoint x="540" y="300" as="sourcePoint" />
            <mxPoint x="540" y="280" as="targetPoint" />
          </mxGeometry>
        </mxCell>
        <mxCell id="Mb3yHgcJe4T5eNl-yDP2-121" value="" style="endArrow=classic;html=1;rounded=0;entryX=0;entryY=1;entryDx=0;entryDy=0;" parent="1" target="Mb3yHgcJe4T5eNl-yDP2-24" edge="1">
          <mxGeometry width="50" height="50" relative="1" as="geometry">
            <mxPoint x="581.5799999999999" y="300" as="sourcePoint" />
            <mxPoint x="581.5799999999999" y="280" as="targetPoint" />
          </mxGeometry>
        </mxCell>
        <mxCell id="Mb3yHgcJe4T5eNl-yDP2-122" value="" style="endArrow=classic;html=1;rounded=0;entryX=1;entryY=1;entryDx=0;entryDy=0;" parent="1" target="Mb3yHgcJe4T5eNl-yDP2-26" edge="1">
          <mxGeometry width="50" height="50" relative="1" as="geometry">
            <mxPoint x="699.8299999999999" y="300" as="sourcePoint" />
            <mxPoint x="699.8299999999999" y="280" as="targetPoint" />
          </mxGeometry>
        </mxCell>
        <mxCell id="Mb3yHgcJe4T5eNl-yDP2-123" value="" style="endArrow=classic;html=1;rounded=0;entryX=0;entryY=1;entryDx=0;entryDy=0;" parent="1" target="Mb3yHgcJe4T5eNl-yDP2-27" edge="1">
          <mxGeometry width="50" height="50" relative="1" as="geometry">
            <mxPoint x="739.91" y="300" as="sourcePoint" />
            <mxPoint x="739.91" y="280" as="targetPoint" />
          </mxGeometry>
        </mxCell>
        <mxCell id="Mb3yHgcJe4T5eNl-yDP2-124" value="" style="endArrow=classic;html=1;rounded=0;exitX=1;exitY=0.5;exitDx=0;exitDy=0;" parent="1" edge="1">
          <mxGeometry width="50" height="50" relative="1" as="geometry">
            <mxPoint x="560" y="380" as="sourcePoint" />
            <mxPoint x="719" y="380.09000000000003" as="targetPoint" />
          </mxGeometry>
        </mxCell>
        <mxCell id="Mb3yHgcJe4T5eNl-yDP2-125" value="Thông báo lên màn hình giao diện" style="rounded=0;whiteSpace=wrap;html=1;" parent="1" vertex="1">
          <mxGeometry x="640" y="420" width="121" height="40" as="geometry" />
        </mxCell>
        <mxCell id="Mb3yHgcJe4T5eNl-yDP2-126" value="" style="endArrow=classic;html=1;rounded=0;entryX=0;entryY=0.5;entryDx=0;entryDy=0;" parent="1" target="Mb3yHgcJe4T5eNl-yDP2-125" edge="1">
          <mxGeometry width="50" height="50" relative="1" as="geometry">
            <mxPoint x="600" y="480" as="sourcePoint" />
            <mxPoint x="539" y="430" as="targetPoint" />
            <Array as="points">
              <mxPoint x="600" y="440" />
            </Array>
          </mxGeometry>
        </mxCell>
        <mxCell id="Mb3yHgcJe4T5eNl-yDP2-127" value="" style="endArrow=classic;html=1;rounded=0;exitX=1;exitY=0.5;exitDx=0;exitDy=0;" parent="1" source="Mb3yHgcJe4T5eNl-yDP2-58" edge="1">
          <mxGeometry width="50" height="50" relative="1" as="geometry">
            <mxPoint x="558" y="500" as="sourcePoint" />
            <mxPoint x="600" y="480" as="targetPoint" />
          </mxGeometry>
        </mxCell>
        <mxCell id="Mb3yHgcJe4T5eNl-yDP2-128" value="" style="endArrow=classic;html=1;rounded=0;entryX=0;entryY=0.5;entryDx=0;entryDy=0;" parent="1" target="Mb3yHgcJe4T5eNl-yDP2-110" edge="1">
          <mxGeometry width="50" height="50" relative="1" as="geometry">
            <mxPoint x="600" y="480" as="sourcePoint" />
            <mxPoint x="638" y="539.85" as="targetPoint" />
            <Array as="points">
              <mxPoint x="600" y="500" />
            </Array>
          </mxGeometry>
        </mxCell>
        <mxCell id="Mb3yHgcJe4T5eNl-yDP2-129" value="" style="endArrow=classic;html=1;rounded=0;entryX=0;entryY=0.5;entryDx=0;entryDy=0;" parent="1" edge="1">
          <mxGeometry width="50" height="50" relative="1" as="geometry">
            <mxPoint x="761" y="439.78" as="sourcePoint" />
            <mxPoint x="801" y="439.78" as="targetPoint" />
          </mxGeometry>
        </mxCell>
        <mxCell id="Mb3yHgcJe4T5eNl-yDP2-130" value="" style="endArrow=classic;html=1;rounded=0;entryX=0;entryY=0.5;entryDx=0;entryDy=0;" parent="1" edge="1">
          <mxGeometry width="50" height="50" relative="1" as="geometry">
            <mxPoint x="760" y="499.89" as="sourcePoint" />
            <mxPoint x="800" y="499.89" as="targetPoint" />
          </mxGeometry>
        </mxCell>
        <mxCell id="Mb3yHgcJe4T5eNl-yDP2-131" value="" style="endArrow=classic;html=1;rounded=0;exitX=0.5;exitY=0;exitDx=0;exitDy=0;" parent="1" source="Mb3yHgcJe4T5eNl-yDP2-58" edge="1">
          <mxGeometry width="50" height="50" relative="1" as="geometry">
            <mxPoint x="519" y="450" as="sourcePoint" />
            <mxPoint x="799" y="400" as="targetPoint" />
            <Array as="points">
              <mxPoint x="479" y="400" />
            </Array>
          </mxGeometry>
        </mxCell>
        <mxCell id="Mb3yHgcJe4T5eNl-yDP2-132" value="" style="endArrow=classic;html=1;rounded=0;exitX=0.5;exitY=1;exitDx=0;exitDy=0;entryX=1;entryY=0.5;entryDx=0;entryDy=0;" parent="1" source="Mb3yHgcJe4T5eNl-yDP2-30" target="Mb3yHgcJe4T5eNl-yDP2-11" edge="1">
          <mxGeometry width="50" height="50" relative="1" as="geometry">
            <mxPoint x="430" y="370" as="sourcePoint" />
            <mxPoint x="480" y="320" as="targetPoint" />
            <Array as="points">
              <mxPoint x="440" y="340" />
            </Array>
          </mxGeometry>
        </mxCell>
        <mxCell id="Mb3yHgcJe4T5eNl-yDP2-133" value="" style="endArrow=classic;html=1;rounded=0;exitX=1;exitY=0.5;exitDx=0;exitDy=0;" parent="1" source="Mb3yHgcJe4T5eNl-yDP2-83" edge="1">
          <mxGeometry width="50" height="50" relative="1" as="geometry">
            <mxPoint x="190" y="550" as="sourcePoint" />
            <mxPoint x="160" y="500" as="targetPoint" />
          </mxGeometry>
        </mxCell>
        <mxCell id="Mb3yHgcJe4T5eNl-yDP2-134" value="" style="endArrow=classic;html=1;rounded=0;" parent="1" edge="1">
          <mxGeometry width="50" height="50" relative="1" as="geometry">
            <mxPoint x="80" y="580" as="sourcePoint" />
            <mxPoint x="60" y="520" as="targetPoint" />
            <Array as="points">
              <mxPoint x="60" y="580" />
            </Array>
          </mxGeometry>
        </mxCell>
        <mxCell id="Mb3yHgcJe4T5eNl-yDP2-135" value="Đến thời gian đã chọn đèn sẽ tự bật/tắt" style="rounded=0;whiteSpace=wrap;html=1;" parent="1" vertex="1">
          <mxGeometry x="640" y="540" width="121" height="40" as="geometry" />
        </mxCell>
        <mxCell id="Mb3yHgcJe4T5eNl-yDP2-136" value="Chọn thời gian bật/ tắt đèn" style="rhombus;whiteSpace=wrap;html=1;" parent="1" vertex="1">
          <mxGeometry x="540" y="565" width="80" height="80" as="geometry" />
        </mxCell>
        <mxCell id="Mb3yHgcJe4T5eNl-yDP2-137" value="Yes" style="text;html=1;align=center;verticalAlign=middle;whiteSpace=wrap;rounded=0;" parent="1" vertex="1">
          <mxGeometry x="591.58" y="540" width="30" height="10" as="geometry" />
        </mxCell>
        <mxCell id="Mb3yHgcJe4T5eNl-yDP2-138" value="No" style="text;html=1;align=center;verticalAlign=middle;whiteSpace=wrap;rounded=0;" parent="1" vertex="1">
          <mxGeometry x="614" y="590" width="30" height="10" as="geometry" />
        </mxCell>
        <mxCell id="Mb3yHgcJe4T5eNl-yDP2-139" value="" style="edgeStyle=orthogonalEdgeStyle;rounded=0;orthogonalLoop=1;jettySize=auto;html=1;" parent="1" edge="1">
          <mxGeometry relative="1" as="geometry">
            <mxPoint x="620" y="604.6700000000001" as="sourcePoint" />
            <mxPoint x="800" y="604.83" as="targetPoint" />
          </mxGeometry>
        </mxCell>
        <mxCell id="Mb3yHgcJe4T5eNl-yDP2-140" value="" style="endArrow=classic;html=1;rounded=0;entryX=0;entryY=0.5;entryDx=0;entryDy=0;" parent="1" edge="1">
          <mxGeometry width="50" height="50" relative="1" as="geometry">
            <mxPoint x="761" y="559.59" as="sourcePoint" />
            <mxPoint x="801" y="559.59" as="targetPoint" />
          </mxGeometry>
        </mxCell>
        <mxCell id="Mb3yHgcJe4T5eNl-yDP2-141" value="" style="endArrow=classic;html=1;rounded=0;entryX=0;entryY=0.5;entryDx=0;entryDy=0;" parent="1" source="Mb3yHgcJe4T5eNl-yDP2-136" edge="1">
          <mxGeometry width="50" height="50" relative="1" as="geometry">
            <mxPoint x="599" y="559.94" as="sourcePoint" />
            <mxPoint x="639" y="559.94" as="targetPoint" />
            <Array as="points">
              <mxPoint x="580" y="560" />
            </Array>
          </mxGeometry>
        </mxCell>
        <mxCell id="Mb3yHgcJe4T5eNl-yDP2-142" value="" style="endArrow=classic;html=1;rounded=0;entryX=0.5;entryY=1;entryDx=0;entryDy=0;" parent="1" target="Mb3yHgcJe4T5eNl-yDP2-136" edge="1">
          <mxGeometry width="50" height="50" relative="1" as="geometry">
            <mxPoint x="579.9000000000001" y="660" as="sourcePoint" />
            <mxPoint x="579.9000000000001" y="650" as="targetPoint" />
          </mxGeometry>
        </mxCell>
        <mxCell id="Mb3yHgcJe4T5eNl-yDP2-143" value="" style="endArrow=classic;html=1;rounded=0;" parent="1" edge="1">
          <mxGeometry width="50" height="50" relative="1" as="geometry">
            <mxPoint x="520.12" y="240" as="sourcePoint" />
            <mxPoint x="519.87" y="220" as="targetPoint" />
          </mxGeometry>
        </mxCell>
        <mxCell id="Mb3yHgcJe4T5eNl-yDP2-144" value="" style="endArrow=classic;html=1;rounded=0;" parent="1" edge="1">
          <mxGeometry width="50" height="50" relative="1" as="geometry">
            <mxPoint x="601.25" y="240" as="sourcePoint" />
            <mxPoint x="601" y="220" as="targetPoint" />
          </mxGeometry>
        </mxCell>
        <mxCell id="Mb3yHgcJe4T5eNl-yDP2-145" value="" style="endArrow=classic;html=1;rounded=0;" parent="1" edge="1">
          <mxGeometry width="50" height="50" relative="1" as="geometry">
            <mxPoint x="680" y="240" as="sourcePoint" />
            <mxPoint x="679.75" y="220" as="targetPoint" />
          </mxGeometry>
        </mxCell>
        <mxCell id="Mb3yHgcJe4T5eNl-yDP2-146" value="" style="endArrow=classic;html=1;rounded=0;" parent="1" edge="1">
          <mxGeometry width="50" height="50" relative="1" as="geometry">
            <mxPoint x="760" y="240" as="sourcePoint" />
            <mxPoint x="759.75" y="220" as="targetPoint" />
          </mxGeometry>
        </mxCell>
      </root>
    </mxGraphModel>
  </diagram>
</mxfile>
